<?xml version="1.0" encoding="UTF-8" standalone="no"?>
<!-- Created with Inkscape (http://www.inkscape.org/) -->

<svg
   xmlns:dc="http://purl.org/dc/elements/1.1/"
   xmlns:cc="http://creativecommons.org/ns#"
   xmlns:rdf="http://www.w3.org/1999/02/22-rdf-syntax-ns#"
   xmlns:svg="http://www.w3.org/2000/svg"
   xmlns="http://www.w3.org/2000/svg"
   xmlns:sodipodi="http://sodipodi.sourceforge.net/DTD/sodipodi-0.dtd"
   xmlns:inkscape="http://www.inkscape.org/namespaces/inkscape"
   id="svg2"
   version="1.1"
   inkscape:version="0.48.4 r9939"
   width="400"
   height="141.7515"
   xml:space="preserve"
   sodipodi:docname="LPI.svg"
   inkscape:export-filename="/home/makerspace/git/opentechsummit.github.io/img/originals/LPI.png"
   inkscape:export-xdpi="72"
   inkscape:export-ydpi="72"><metadata
     id="metadata8"><rdf:RDF><cc:Work
         rdf:about=""><dc:format>image/svg+xml</dc:format><dc:type
           rdf:resource="http://purl.org/dc/dcmitype/StillImage" /><dc:title></dc:title></cc:Work></rdf:RDF></metadata><defs
     id="defs6"><clipPath
       clipPathUnits="userSpaceOnUse"
       id="clipPath18"><path
         d="m 130,100 2180,0 0,1000 -2180,0 0,-1000 z"
         id="path20"
         inkscape:connector-curvature="0" /></clipPath></defs><sodipodi:namedview
     pagecolor="#ffffff"
     bordercolor="#666666"
     borderopacity="1"
     objecttolerance="10"
     gridtolerance="10"
     guidetolerance="10"
     inkscape:pageopacity="0"
     inkscape:pageshadow="2"
     inkscape:window-width="1366"
     inkscape:window-height="743"
     id="namedview4"
     showgrid="false"
     fit-margin-top="0"
     fit-margin-left="0"
     fit-margin-right="0"
     fit-margin-bottom="0"
     inkscape:zoom="0.97289377"
     inkscape:cx="134.54118"
     inkscape:cy="-79.755731"
     inkscape:window-x="0"
     inkscape:window-y="0"
     inkscape:window-maximized="1"
     inkscape:current-layer="g10" /><g
     id="g10"
     inkscape:groupmode="layer"
     inkscape:label="ink_ext_XXXXXX"
     transform="matrix(1.25,0,0,-1.25,-36.083821,290.2572)"><g
       id="g3320"
       transform="matrix(1.5217245,0,0,1.5217245,-15.060654,-109.87407)"><path
         d="m 66.128059,224.79748 c 20.5754,0 37.260901,-16.6852 37.260901,-37.2606 0,-20.5754 -16.685501,-37.2609 -37.260901,-37.2609 -20.5754,0 -37.261,16.6855 -37.261,37.2609 0,20.5754 16.6856,37.2606 37.261,37.2606 z m -4e-4,-8.459 c 15.7937,0 28.6004,-12.8067 28.6004,-28.5996 0,-15.7942 -12.8067,-28.6008 -28.6004,-28.6008 -15.793,0 -28.5996,12.8066 -28.5996,28.6008 0,15.7929 12.8066,28.5996 28.5996,28.5996"
         style="fill:#8e0a26;fill-opacity:1;fill-rule:evenodd;stroke:none"
         id="path22"
         inkscape:connector-curvature="0" /><path
         d="m 71.497159,210.29628 -8.666,-31.2188 19.6109,0 -2.6183,-10.2718 -30.4129,0 11.4805,41.4906 10.6058,0"
         style="fill:#8e0a26;fill-opacity:1;fill-rule:evenodd;stroke:none"
         id="path24"
         inkscape:connector-curvature="0" /><path
         d="m 77.306159,205.46228 c 2.2801,0 4.1289,-1.8488 4.1289,-4.1285 0,-2.2805 -1.8488,-4.1293 -4.1289,-4.1293 -2.2801,0 -4.1285,1.8488 -4.1285,4.1293 0,2.2797 1.8484,4.1285 4.1285,4.1285"
         style="fill:#8e0a26;fill-opacity:1;fill-rule:evenodd;stroke:none"
         id="path26"
         inkscape:connector-curvature="0" /><path
         d="m 101.60386,217.96848 0,4.295 1.9039,0 c 0.3832,0 0.6742,-0.039 0.8734,-0.116 0.1988,-0.077 0.3578,-0.213 0.4777,-0.408 0.1192,-0.196 0.1782,-0.412 0.1782,-0.648 0,-0.305 -0.0981,-0.561 -0.2961,-0.77 -0.1969,-0.209 -0.502,-0.342 -0.9137,-0.399 0.1508,-0.072 0.2645,-0.143 0.343,-0.214 0.1656,-0.152 0.3226,-0.343 0.4718,-0.571 l 0.7469,-1.169 -0.7148,0 -0.568,0.894 c -0.1664,0.257 -0.3031,0.455 -0.4113,0.591 -0.1071,0.137 -0.2028,0.233 -0.2879,0.287 -0.0852,0.055 -0.1707,0.093 -0.259,0.115 -0.0648,0.013 -0.1703,0.02 -0.3168,0.02 l -0.6594,0 0,-1.907 -0.5679,0 z m 0.5679,2.398 1.2223,0 c 0.259,0 0.4629,0.028 0.609,0.082 0.1469,0.054 0.2582,0.14 0.334,0.258 0.0761,0.118 0.114,0.246 0.114,0.385 0,0.203 -0.073,0.37 -0.2211,0.501 -0.1468,0.131 -0.38,0.196 -0.6992,0.196 l -1.359,0 0,-1.422"
         style="fill:#8e0a26;fill-opacity:1;fill-rule:nonzero;stroke:none"
         id="path28"
         inkscape:connector-curvature="0" /><path
         d="m 103.14366,224.00848 c 2.1285,0 3.8547,-1.726 3.8547,-3.854 0,-2.129 -1.7262,-3.855 -3.8547,-3.855 -2.1281,0 -3.854301,1.726 -3.854301,3.855 0,2.128 1.726201,3.854 3.854301,3.854 z"
         style="fill:none;stroke:#8e0a26;stroke-width:0.71802002;stroke-linecap:butt;stroke-linejoin:miter;stroke-miterlimit:2.61310005;stroke-opacity:1;stroke-dasharray:none"
         id="path30"
         inkscape:connector-curvature="0" /><path
         d="m 117.75576,203.18218 0,14.2703 2.904,0 0,-11.8453 7.223,0 0,-2.425 -10.127,0"
         style="fill:#8e0a26;fill-opacity:1;fill-rule:nonzero;stroke:none"
         id="path32"
         inkscape:connector-curvature="0" /><path
         d="m 130.27176,215.01738 0,2.5531 2.756,0 0,-2.5531 -2.756,0 z m 0,-11.8352 0,10.4215 2.756,0 0,-10.4215 -2.756,0"
         style="fill:#8e0a26;fill-opacity:1;fill-rule:nonzero;stroke:none"
         id="path34"
         inkscape:connector-curvature="0" /><path
         d="m 145.67076,203.18218 -2.757,0 0,5.3196 c 0,1.1257 -0.06,1.8523 -0.178,2.1839 -0.117,0.3286 -0.311,0.5864 -0.576,0.7707 -0.264,0.1809 -0.582,0.2746 -0.954,0.2746 -0.479,0 -0.908,-0.1304 -1.287,-0.3917 -0.378,-0.2649 -0.64,-0.6098 -0.78,-1.0422 -0.141,-0.4321 -0.211,-1.2293 -0.211,-2.395 l 0,-4.7199 -2.757,0 0,10.4215 2.559,0 0,-1.5309 c 0.911,1.1793 2.057,1.7688 3.437,1.7688 0.607,0 1.166,-0.1106 1.668,-0.3281 0.503,-0.2211 0.885,-0.4992 1.143,-0.841 0.258,-0.3418 0.439,-0.727 0.539,-1.1594 0.104,-0.4321 0.154,-1.0485 0.154,-1.8524 l 0,-6.4785"
         style="fill:#8e0a26;fill-opacity:1;fill-rule:nonzero;stroke:none"
         id="path36"
         inkscape:connector-curvature="0" /><path
         d="m 155.66376,203.18218 0,1.561 c -0.382,-0.5563 -0.881,-0.995 -1.497,-1.3164 -0.62,-0.3184 -1.273,-0.4793 -1.96,-0.4793 -0.7,0 -1.326,0.1539 -1.883,0.4589 -0.556,0.3082 -0.958,0.7407 -1.209,1.2965 -0.248,0.5559 -0.372,1.3266 -0.372,2.3082 l 0,6.5926 2.757,0 0,-4.7871 c 0,-1.4672 0.05,-2.3652 0.154,-2.6969 0.101,-0.3281 0.285,-0.5894 0.553,-0.7836 0.268,-0.1941 0.61,-0.2879 1.022,-0.2879 0.472,0 0.894,0.127 1.266,0.3852 0.372,0.2613 0.626,0.5793 0.764,0.9609 0.137,0.3856 0.208,1.3239 0.208,2.8145 l 0,4.3949 2.757,0 0,-10.4215 -2.56,0"
         style="fill:#8e0a26;fill-opacity:1;fill-rule:nonzero;stroke:none"
         id="path38"
         inkscape:connector-curvature="0" /><path
         d="m 160.08976,203.18218 3.758,5.3696 -3.601,5.0519 3.366,0 1.847,-2.8644 1.942,2.8644 3.24,0 -3.534,-4.9344 3.855,-5.4871 -3.383,0 -2.12,3.2293 -2.141,-3.2293 -3.229,0"
         style="fill:#8e0a26;fill-opacity:1;fill-rule:nonzero;stroke:none"
         id="path40"
         inkscape:connector-curvature="0" /><path
         d="m 117.67876,182.29938 0,14.3879 4.659,0 c 1.766,0 2.918,-0.0738 3.455,-0.218 0.824,-0.214 1.517,-0.6832 2.073,-1.4066 0.556,-0.7238 0.834,-1.6582 0.834,-2.8008 0,-0.8844 -0.161,-1.6281 -0.482,-2.2277 -0.322,-0.6028 -0.727,-1.0754 -1.223,-1.4203 -0.492,-0.3418 -0.995,-0.5696 -1.504,-0.6801 -0.694,-0.1375 -1.699,-0.2078 -3.015,-0.2078 l -1.893,0 0,-5.4266 -2.904,0 z m 2.904,11.9524 0,-4.0801 1.588,0 c 1.146,0 1.913,0.0734 2.298,0.2242 0.385,0.1508 0.687,0.3855 0.908,0.707 0.218,0.3215 0.328,0.6934 0.328,1.1188 0,0.5226 -0.154,0.9547 -0.462,1.2965 -0.305,0.3382 -0.697,0.5527 -1.165,0.6367 -0.349,0.0668 -1.046,0.0969 -2.091,0.0969 l -1.404,0"
         style="fill:#8e0a26;fill-opacity:1;fill-rule:nonzero;stroke:none"
         id="path42"
         inkscape:connector-curvature="0" /><path
         d="m 134.03976,182.29938 -2.757,0 0,10.4215 2.559,0 0,-1.4809 c 0.439,0.7004 0.835,1.1625 1.183,1.3836 0.352,0.2211 0.747,0.3352 1.193,0.3352 0.629,0 1.233,-0.1742 1.815,-0.5227 l -0.854,-2.4019 c -0.462,0.2984 -0.894,0.4488 -1.293,0.4488 -0.389,0 -0.714,-0.1035 -0.982,-0.318 -0.271,-0.2113 -0.479,-0.5965 -0.633,-1.1527 -0.154,-0.5559 -0.231,-1.7215 -0.231,-3.4938 l 0,-3.2191"
         style="fill:#8e0a26;fill-opacity:1;fill-rule:nonzero;stroke:none"
         id="path44"
         inkscape:connector-curvature="0" /><path
         d="m 138.91776,187.65918 c 0,0.9144 0.227,1.8023 0.677,2.6597 0.452,0.8543 1.091,1.511 1.919,1.9598 0.827,0.4523 1.752,0.6801 2.774,0.6801 1.574,0 2.867,-0.5125 3.875,-1.5379 1.009,-1.025 1.511,-2.318 1.511,-3.8824 0,-1.5742 -0.509,-2.8809 -1.524,-3.9196 -1.018,-1.0382 -2.298,-1.5539 -3.842,-1.5539 -0.958,0 -1.866,0.2141 -2.734,0.6465 -0.868,0.432 -1.527,1.0653 -1.979,1.8992 -0.45,0.834 -0.677,1.8493 -0.677,3.0485 z m 2.827,-0.1473 c 0,-1.0351 0.245,-1.8258 0.737,-2.375 0.489,-0.5496 1.096,-0.8242 1.816,-0.8242 0.72,0 1.323,0.2746 1.809,0.8242 0.489,0.5492 0.733,1.3465 0.733,2.3949 0,1.0184 -0.244,1.8059 -0.733,2.3551 -0.486,0.5492 -1.089,0.8242 -1.809,0.8242 -0.72,0 -1.327,-0.275 -1.816,-0.8242 -0.492,-0.5492 -0.737,-1.3434 -0.737,-2.375"
         style="fill:#8e0a26;fill-opacity:1;fill-rule:nonzero;stroke:none"
         id="path46"
         inkscape:connector-curvature="0" /><path
         d="m 150.96076,192.72088 1.531,0 0,0.7871 c 0,0.8746 0.093,1.5313 0.281,1.9633 0.188,0.432 0.53,0.784 1.028,1.0551 0.503,0.2714 1.136,0.4054 1.9,0.4054 0.787,0 1.554,-0.1175 2.308,-0.3519 l -0.372,-1.9262 c -0.439,0.1074 -0.861,0.1574 -1.266,0.1574 -0.402,0 -0.687,-0.0902 -0.861,-0.2781 -0.174,-0.1871 -0.258,-0.5457 -0.258,-1.075 l 0,-0.7371 2.06,0 0,-2.1672 -2.06,0 0,-8.2543 -2.76,0 0,8.2543 -1.531,0 0,2.1672"
         style="fill:#8e0a26;fill-opacity:1;fill-rule:nonzero;stroke:none"
         id="path48"
         inkscape:connector-curvature="0" /><path
         d="m 165.23076,185.61578 2.751,-0.459 c -0.355,-1.0082 -0.912,-1.7754 -1.675,-2.3015 -0.761,-0.5289 -1.715,-0.7903 -2.861,-0.7903 -1.813,0 -3.152,0.5895 -4.024,1.775 -0.686,0.9485 -1.031,2.1477 -1.031,3.5914 0,1.7286 0.452,3.0821 1.357,4.0602 0.901,0.9781 2.043,1.4672 3.423,1.4672 1.551,0 2.774,-0.5125 3.672,-1.5379 0.894,-1.025 1.323,-2.5926 1.286,-4.7063 l -6.911,0 c 0.02,-0.8175 0.242,-1.4539 0.667,-1.9062 0.425,-0.4559 0.958,-0.6832 1.591,-0.6832 0.432,0 0.794,0.1168 1.089,0.3516 0.295,0.2378 0.519,0.6164 0.666,1.139 z m 0.158,2.7871 c -0.02,0.8008 -0.225,1.4071 -0.617,1.8223 -0.391,0.4156 -0.871,0.623 -1.433,0.623 -0.603,0 -1.099,-0.2211 -1.491,-0.6601 -0.392,-0.4352 -0.587,-1.0317 -0.579,-1.7852 l 4.12,0"
         style="fill:#8e0a26;fill-opacity:1;fill-rule:nonzero;stroke:none"
         id="path50"
         inkscape:connector-curvature="0" /><path
         d="m 169.73976,185.27398 2.768,0.4219 c 0.117,-0.5356 0.355,-0.9445 0.716,-1.2227 0.359,-0.2777 0.861,-0.4183 1.511,-0.4183 0.714,0 1.25,0.1304 1.609,0.3949 0.244,0.1809 0.364,0.4289 0.364,0.7336 0,0.2113 -0.067,0.3851 -0.197,0.5226 -0.137,0.1309 -0.446,0.2512 -0.921,0.3618 -2.225,0.4894 -3.635,0.9379 -4.232,1.3433 -0.823,0.5629 -1.236,1.3469 -1.236,2.3485 0,0.9011 0.356,1.6613 1.069,2.2746 0.714,0.6164 1.819,0.9246 3.317,0.9246 1.427,0 2.489,-0.2344 3.182,-0.6969 0.693,-0.4656 1.169,-1.1523 1.43,-2.0633 l -2.599,-0.4793 c -0.111,0.4055 -0.322,0.7168 -0.633,0.9313 -0.312,0.2176 -0.754,0.325 -1.33,0.325 -0.727,0 -1.247,-0.1004 -1.561,-0.3047 -0.208,-0.1441 -0.312,-0.332 -0.312,-0.5594 0,-0.198 0.091,-0.3621 0.275,-0.4992 0.248,-0.1844 1.105,-0.4422 2.576,-0.7773 1.467,-0.3317 2.492,-0.7403 3.075,-1.2258 0.576,-0.493 0.864,-1.1762 0.864,-2.0504 0,-0.9547 -0.398,-1.7785 -1.199,-2.4656 -0.797,-0.6868 -1.976,-1.0282 -3.541,-1.0282 -1.42,0 -2.542,0.2879 -3.373,0.8641 -0.827,0.573 -1.367,1.3566 -1.622,2.3449"
         style="fill:#8e0a26;fill-opacity:1;fill-rule:nonzero;stroke:none"
         id="path52"
         inkscape:connector-curvature="0" /><path
         d="m 181.25376,185.27398 2.768,0.4219 c 0.117,-0.5356 0.355,-0.9445 0.716,-1.2227 0.359,-0.2777 0.861,-0.4183 1.511,-0.4183 0.714,0 1.25,0.1304 1.608,0.3949 0.245,0.1809 0.365,0.4289 0.365,0.7336 0,0.2113 -0.067,0.3851 -0.197,0.5226 -0.138,0.1309 -0.446,0.2512 -0.921,0.3618 -2.225,0.4894 -3.635,0.9379 -4.232,1.3433 -0.824,0.5629 -1.236,1.3469 -1.236,2.3485 0,0.9011 0.355,1.6613 1.069,2.2746 0.714,0.6164 1.819,0.9246 3.316,0.9246 1.428,0 2.489,-0.2344 3.183,-0.6969 0.693,-0.4656 1.169,-1.1523 1.43,-2.0633 l -2.599,-0.4793 c -0.111,0.4055 -0.322,0.7168 -0.634,0.9313 -0.311,0.2176 -0.753,0.325 -1.329,0.325 -0.727,0 -1.246,-0.1004 -1.562,-0.3047 -0.207,-0.1441 -0.311,-0.332 -0.311,-0.5594 0,-0.198 0.09,-0.3621 0.275,-0.4992 0.248,-0.1844 1.105,-0.4422 2.576,-0.7773 1.467,-0.3317 2.492,-0.7403 3.075,-1.2258 0.576,-0.493 0.864,-1.1762 0.864,-2.0504 0,-0.9547 -0.398,-1.7785 -1.199,-2.4656 -0.797,-0.6868 -1.977,-1.0282 -3.541,-1.0282 -1.42,0 -2.543,0.2879 -3.373,0.8641 -0.828,0.573 -1.367,1.3566 -1.622,2.3449"
         style="fill:#8e0a26;fill-opacity:1;fill-rule:nonzero;stroke:none"
         id="path54"
         inkscape:connector-curvature="0" /><path
         d="m 193.73976,194.13458 0,2.5527 2.757,0 0,-2.5527 -2.757,0 z m 0,-11.8352 0,10.4215 2.757,0 0,-10.4215 -2.757,0"
         style="fill:#8e0a26;fill-opacity:1;fill-rule:nonzero;stroke:none"
         id="path56"
         inkscape:connector-curvature="0" /><path
         d="m 199.01876,187.65918 c 0,0.9144 0.228,1.8023 0.677,2.6597 0.452,0.8543 1.092,1.511 1.919,1.9598 0.828,0.4523 1.753,0.6801 2.775,0.6801 1.574,0 2.867,-0.5125 3.875,-1.5379 1.009,-1.025 1.511,-2.318 1.511,-3.8824 0,-1.5742 -0.509,-2.8809 -1.524,-3.9196 -1.019,-1.0382 -2.298,-1.5539 -3.843,-1.5539 -0.958,0 -1.865,0.2141 -2.733,0.6465 -0.868,0.432 -1.528,1.0653 -1.98,1.8992 -0.449,0.834 -0.677,1.8493 -0.677,3.0485 z m 2.828,-0.1473 c 0,-1.0351 0.244,-1.8258 0.737,-2.375 0.489,-0.5496 1.095,-0.8242 1.815,-0.8242 0.721,0 1.323,0.2746 1.809,0.8242 0.489,0.5492 0.734,1.3465 0.734,2.3949 0,1.0184 -0.245,1.8059 -0.734,2.3551 -0.486,0.5492 -1.088,0.8242 -1.809,0.8242 -0.72,0 -1.326,-0.275 -1.815,-0.8242 -0.493,-0.5492 -0.737,-1.3434 -0.737,-2.375"
         style="fill:#8e0a26;fill-opacity:1;fill-rule:nonzero;stroke:none"
         id="path58"
         inkscape:connector-curvature="0" /><path
         d="m 221.75176,182.29938 -2.757,0 0,5.3195 c 0,1.1258 -0.06,1.8524 -0.177,2.184 -0.118,0.3285 -0.312,0.5864 -0.577,0.7707 -0.264,0.1809 -0.583,0.2746 -0.955,0.2746 -0.478,0 -0.907,-0.1304 -1.286,-0.3918 -0.378,-0.2648 -0.639,-0.6097 -0.78,-1.0421 -0.141,-0.4321 -0.211,-1.2293 -0.211,-2.395 l 0,-4.7199 -2.757,0 0,10.4215 2.559,0 0,-1.5309 c 0.911,1.1793 2.057,1.7688 3.437,1.7688 0.606,0 1.166,-0.1106 1.668,-0.3281 0.503,-0.2211 0.885,-0.4993 1.143,-0.8411 0.258,-0.3418 0.438,-0.7269 0.539,-1.1593 0.104,-0.4317 0.154,-1.0485 0.154,-1.8524 l 0,-6.4785"
         style="fill:#8e0a26;fill-opacity:1;fill-rule:nonzero;stroke:none"
         id="path60"
         inkscape:connector-curvature="0" /><path
         d="m 226.94476,189.54198 -2.503,0.4519 c 0.282,1.0086 0.764,1.7524 1.451,2.2379 0.69,0.4825 1.708,0.727 3.061,0.727 1.233,0 2.148,-0.1473 2.751,-0.4387 0.599,-0.2914 1.025,-0.6601 1.269,-1.109 0.245,-0.4492 0.369,-1.2695 0.369,-2.4691 l -0.03,-3.2192 c 0,-0.9144 0.043,-1.5914 0.134,-2.0265 0.087,-0.432 0.255,-0.9012 0.495,-1.3969 l -2.729,0 c -0.071,0.184 -0.162,0.4555 -0.265,0.8141 -0.044,0.164 -0.078,0.2711 -0.097,0.3246 -0.473,-0.4586 -0.975,-0.8004 -1.511,-1.0317 -0.536,-0.2277 -1.109,-0.3414 -1.719,-0.3414 -1.072,0 -1.919,0.2914 -2.536,0.8707 -0.62,0.5828 -0.927,1.32 -0.927,2.211 0,0.5863 0.14,1.1121 0.421,1.5746 0.282,0.4621 0.677,0.814 1.183,1.0586 0.506,0.2445 1.24,0.4586 2.194,0.6429 1.287,0.2415 2.181,0.4692 2.677,0.677 l 0,0.2746 c 0,0.5328 -0.131,0.9078 -0.392,1.1356 -0.261,0.2246 -0.754,0.3382 -1.481,0.3382 -0.492,0 -0.874,-0.0968 -1.149,-0.2914 -0.275,-0.191 -0.496,-0.5293 -0.666,-1.0148 z m 3.688,-2.2379 c -0.352,-0.1176 -0.911,-0.2578 -1.679,-0.4223 -0.763,-0.164 -1.262,-0.3246 -1.5,-0.4789 -0.359,-0.2578 -0.54,-0.5793 -0.54,-0.9715 0,-0.3886 0.144,-0.7203 0.433,-1.0015 0.288,-0.2813 0.653,-0.4223 1.098,-0.4223 0.5,0 0.972,0.1641 1.424,0.4895 0.335,0.2476 0.553,0.5527 0.657,0.9144 0.073,0.2344 0.107,0.6832 0.107,1.3434 l 0,0.5492"
         style="fill:#8e0a26;fill-opacity:1;fill-rule:nonzero;stroke:none"
         id="path62"
         inkscape:connector-curvature="0" /><path
         d="m 236.39776,182.29938 2.75703,0 0,14.3879 -2.75703,0 0,-14.3879 z"
         style="fill:#8e0a26;fill-opacity:1;fill-rule:nonzero;stroke:none"
         id="path64"
         inkscape:connector-curvature="0" /><path
         d="m 117.58776,161.41658 2.90469,0 0,14.3879 -2.90469,0 0,-14.3879 z"
         style="fill:#8e0a26;fill-opacity:1;fill-rule:nonzero;stroke:none"
         id="path66"
         inkscape:connector-curvature="0" /><path
         d="m 133.05776,161.41658 -2.756,0 0,5.3195 c 0,1.1258 -0.06,1.8524 -0.178,2.184 -0.117,0.3285 -0.311,0.5863 -0.576,0.7707 -0.265,0.1809 -0.583,0.275 -0.955,0.275 -0.479,0 -0.908,-0.1308 -1.286,-0.3922 -0.379,-0.2648 -0.64,-0.6097 -0.781,-1.0422 -0.14,-0.4316 -0.211,-1.2293 -0.211,-2.3949 l 0,-4.7199 -2.757,0 0,10.4215 2.56,0 0,-1.5309 c 0.911,1.1793 2.056,1.7688 3.436,1.7688 0.607,0 1.166,-0.1106 1.669,-0.3282 0.503,-0.221 0.884,-0.4992 1.142,-0.841 0.258,-0.3418 0.439,-0.7269 0.539,-1.159 0.104,-0.432 0.154,-1.0488 0.154,-1.8527 l 0,-6.4785"
         style="fill:#8e0a26;fill-opacity:1;fill-rule:nonzero;stroke:none"
         id="path68"
         inkscape:connector-curvature="0" /><path
         d="m 135.21876,164.39118 2.767,0.4219 c 0.118,-0.5356 0.356,-0.9446 0.717,-1.2223 0.359,-0.2781 0.861,-0.4187 1.511,-0.4187 0.714,0 1.25,0.1304 1.608,0.3949 0.245,0.1808 0.365,0.4289 0.365,0.7336 0,0.2113 -0.067,0.3851 -0.197,0.5226 -0.138,0.1309 -0.446,0.2512 -0.921,0.3618 -2.225,0.4894 -3.635,0.9382 -4.232,1.3433 -0.824,0.5629 -1.236,1.3469 -1.236,2.3485 0,0.9011 0.355,1.6613 1.069,2.2746 0.713,0.6164 1.819,0.9246 3.316,0.9246 1.427,0 2.489,-0.2344 3.183,-0.6969 0.693,-0.4656 1.169,-1.1523 1.43,-2.0633 l -2.599,-0.4793 c -0.111,0.4055 -0.322,0.7168 -0.633,0.9313 -0.312,0.2175 -0.754,0.325 -1.33,0.325 -0.727,0 -1.247,-0.1004 -1.561,-0.3047 -0.208,-0.1442 -0.312,-0.3317 -0.312,-0.5594 0,-0.198 0.09,-0.3621 0.274,-0.4992 0.248,-0.1844 1.106,-0.4422 2.577,-0.7774 1.467,-0.3316 2.492,-0.7402 3.075,-1.2257 0.576,-0.4926 0.864,-1.1762 0.864,-2.0504 0,-0.9547 -0.398,-1.7785 -1.199,-2.4657 -0.797,-0.6867 -1.976,-1.0281 -3.541,-1.0281 -1.42,0 -2.542,0.2879 -3.373,0.8641 -0.828,0.573 -1.367,1.3566 -1.622,2.3449"
         style="fill:#8e0a26;fill-opacity:1;fill-rule:nonzero;stroke:none"
         id="path70"
         inkscape:connector-curvature="0" /><path
         d="m 152.48176,171.83808 0,-2.1977 -1.883,0 0,-4.2008 c 0,-0.8507 0.017,-1.3464 0.054,-1.4875 0.036,-0.1402 0.117,-0.2543 0.244,-0.348 0.127,-0.0906 0.285,-0.1375 0.466,-0.1375 0.258,0 0.626,0.0906 1.112,0.2644 l 0.235,-2.1371 c -0.643,-0.2746 -1.367,-0.4117 -2.181,-0.4117 -0.496,0 -0.945,0.0836 -1.344,0.2477 -0.398,0.1676 -0.69,0.3851 -0.877,0.65 -0.188,0.2648 -0.315,0.623 -0.389,1.0754 -0.057,0.3179 -0.087,0.9679 -0.087,1.9429 l 0,4.5422 -1.266,0 0,2.1977 1.266,0 0,2.0734 2.767,1.6082 0,-3.6816 1.883,0"
         style="fill:#8e0a26;fill-opacity:1;fill-rule:nonzero;stroke:none"
         id="path72"
         inkscape:connector-curvature="0" /><path
         d="m 154.73276,173.25178 0,2.5527 2.757,0 0,-2.5527 -2.757,0 z m 0,-11.8352 0,10.4215 2.757,0 0,-10.4215 -2.757,0"
         style="fill:#8e0a26;fill-opacity:1;fill-rule:nonzero;stroke:none"
         id="path74"
         inkscape:connector-curvature="0" /><path
         d="m 165.42876,171.83808 0,-2.1977 -1.882,0 0,-4.2008 c 0,-0.8507 0.016,-1.3464 0.053,-1.4875 0.037,-0.1402 0.117,-0.2543 0.245,-0.348 0.127,-0.0906 0.285,-0.1375 0.466,-0.1375 0.258,0 0.626,0.0906 1.111,0.2644 l 0.235,-2.1371 c -0.643,-0.2746 -1.367,-0.4117 -2.181,-0.4117 -0.495,0 -0.945,0.0836 -1.343,0.2477 -0.398,0.1676 -0.69,0.3851 -0.878,0.65 -0.187,0.2648 -0.315,0.623 -0.388,1.0754 -0.057,0.3179 -0.087,0.9679 -0.087,1.9429 l 0,4.5422 -1.267,0 0,2.1977 1.267,0 0,2.0734 2.767,1.6082 0,-3.6816 1.882,0"
         style="fill:#8e0a26;fill-opacity:1;fill-rule:nonzero;stroke:none"
         id="path76"
         inkscape:connector-curvature="0" /><path
         d="m 174.54076,161.41658 0,1.5609 c -0.382,-0.5562 -0.881,-0.9949 -1.497,-1.3164 -0.62,-0.3183 -1.274,-0.4789 -1.96,-0.4789 -0.7,0 -1.326,0.1539 -1.883,0.4586 -0.556,0.3082 -0.958,0.7406 -1.209,1.2965 -0.248,0.5562 -0.372,1.3266 -0.372,2.3082 l 0,6.5926 2.757,0 0,-4.7871 c 0,-1.4672 0.05,-2.3653 0.154,-2.6969 0.101,-0.3281 0.285,-0.5895 0.553,-0.7836 0.268,-0.1941 0.61,-0.2879 1.022,-0.2879 0.472,0 0.894,0.1274 1.266,0.3852 0.372,0.2613 0.626,0.5793 0.764,0.9613 0.137,0.3855 0.208,1.3234 0.208,2.8141 l 0,4.3949 2.757,0 0,-10.4215 -2.56,0"
         style="fill:#8e0a26;fill-opacity:1;fill-rule:nonzero;stroke:none"
         id="path78"
         inkscape:connector-curvature="0" /><path
         d="m 185.06976,171.83808 0,-2.1977 -1.883,0 0,-4.2008 c 0,-0.8507 0.017,-1.3464 0.054,-1.4875 0.037,-0.1402 0.117,-0.2543 0.244,-0.348 0.128,-0.0906 0.285,-0.1375 0.466,-0.1375 0.258,0 0.627,0.0906 1.112,0.2644 l 0.235,-2.1371 c -0.643,-0.2746 -1.367,-0.4117 -2.181,-0.4117 -0.496,0 -0.945,0.0836 -1.343,0.2477 -0.399,0.1676 -0.69,0.3851 -0.878,0.65 -0.188,0.2648 -0.315,0.623 -0.388,1.0754 -0.057,0.3179 -0.088,0.9679 -0.088,1.9429 l 0,4.5422 -1.266,0 0,2.1977 1.266,0 0,2.0734 2.767,1.6082 0,-3.6816 1.883,0"
         style="fill:#8e0a26;fill-opacity:1;fill-rule:nonzero;stroke:none"
         id="path80"
         inkscape:connector-curvature="0" /><path
         d="m 193.35376,164.73298 2.75,-0.459 c -0.354,-1.0082 -0.91,-1.7754 -1.675,-2.3015 -0.76,-0.529 -1.714,-0.7903 -2.86,-0.7903 -1.813,0 -3.152,0.5895 -4.024,1.775 -0.686,0.9485 -1.031,2.1477 -1.031,3.5914 0,1.7285 0.452,3.0821 1.356,4.0602 0.902,0.9781 2.044,1.4672 3.424,1.4672 1.551,0 2.774,-0.5125 3.671,-1.5379 0.895,-1.025 1.324,-2.5926 1.287,-4.7063 l -6.911,0 c 0.02,-0.8172 0.242,-1.4539 0.667,-1.9062 0.425,-0.4559 0.958,-0.6832 1.591,-0.6832 0.432,0 0.794,0.1168 1.089,0.3515 0.295,0.2379 0.519,0.6164 0.666,1.1391 z m 0.158,2.7871 c -0.02,0.8008 -0.225,1.407 -0.617,1.8223 -0.392,0.4156 -0.871,0.6234 -1.433,0.6234 -0.604,0 -1.099,-0.2211 -1.491,-0.6601 -0.392,-0.4356 -0.586,-1.0321 -0.58,-1.7856 l 4.121,0"
         style="fill:#8e0a26;fill-opacity:1;fill-rule:nonzero;stroke:none"
         id="path82"
         inkscape:connector-curvature="0" /></g></g></svg>